<svg xmlns="http://www.w3.org/2000/svg" xmlns:xlink="http://www.w3.org/1999/xlink" version="1.1" width="92px" height="92px" style="shape-rendering:geometricPrecision; text-rendering:geometricPrecision; image-rendering:optimizeQuality; fill-rule:evenodd; clip-rule:evenodd">
<g><path style="opacity:0.958" fill="#a7aaad" d="M 38.5,5.5 C 44.2896,5.09616 49.9562,5.59616 55.5,7C 58.3658,10.9434 58.0324,14.6101 54.5,18C 31.6939,16.4823 20.1939,26.9823 20,49.5C 23.413,63.2981 32.2463,70.6314 46.5,71.5C 68.2913,67.4373 76.2913,54.604 70.5,33C 71.9814,26.7613 75.648,25.0946 81.5,28C 89.8654,48.9058 84.8654,65.9058 66.5,79C 43.5745,89.4671 25.0745,84.3005 11,63.5C 1.10185,34.9673 10.2685,15.6339 38.5,5.5 Z"/></g>
<g><path style="opacity:0.955" fill="#a7aaad" d="M 58.5,25.5 C 60.6348,25.147 61.9681,25.9803 62.5,28C 57.388,38.9481 54.388,50.4481 53.5,62.5C 51.8561,62.7135 50.3561,62.3802 49,61.5C 47.2025,56.9769 46.0359,52.3102 45.5,47.5C 42.7814,47.3975 40.1147,47.7308 37.5,48.5C 34.5252,47.8607 31.5252,47.3607 28.5,47C 27.2528,45.5064 27.2528,44.0064 28.5,42.5C 39.2121,37.8184 49.2121,32.1517 58.5,25.5 Z"/></g>
</svg>